<svg xmlns="http://www.w3.org/2000/svg" width="64" height="64" viewBox="0 0 64 64"><rect x="0.5" y="0.5" width="63" height="63" rx="14" fill="#fff" stroke="#d2d2d7"/><svg x="12" y="12" width="40" height="40" viewBox="0 0 32 32">
<g clip-path="url(#clip0_1_13)">
<path d="M4.10649 9.03372L16 2.06872V29.9333L4.10649 22.9668V9.03372Z" fill="black" fill-opacity="0.3" style="mix-blend-mode:screen"/>
<path d="M16 29.933L4.10649 22.9665L16 16L27.8935 22.9665L16 29.933Z" fill="black" fill-opacity="0.3" style="mix-blend-mode:screen"/>
<path d="M16 29.933L4.10649 22.9665L16 16L27.8935 22.9665L16 29.933Z" fill="black" fill-opacity="0.3" style="mix-blend-mode:screen"/>
<path d="M4.10649 9.03372L16 2.06872V29.9333L4.10649 22.9668V9.03372Z" fill="black" fill-opacity="0.3" style="mix-blend-mode:screen"/>
<path d="M16 29.933L4.10649 22.9665L16 16L27.8935 22.9665L16 29.933Z" fill="black" fill-opacity="0.3" style="mix-blend-mode:screen"/>
<path d="M4.10649 9.03372L16 2.06872V29.9333L4.10649 22.9668V9.03372Z" fill="black" fill-opacity="0.3" style="mix-blend-mode:screen"/>
</g>
<defs>
<clipPath id="clip0_1_13">
<rect width="24" height="28" fill="black" transform="translate(4 2)"/>
</clipPath>
</defs>
</svg></svg>